# xmcd
#
# Track frame offsets:
#	150
#	15955
#	28992
#	44712
#	58557
#	73900
#	89205
#	105530
#	123057
#	141372
#	158000
#	175947
#	199152
#	211937
#	225367
#	237892
#	253945
#	263457
#
# Disc length: 3776
#
# Revision: 1
# Processed by: cddbd v1.5.1PL0 Copyright (c) Steve Scherf et al.
# Submitted via: CDex 1.50beta9
# Normalized: r0:TDELIM( - )
#
DISCID=fb0ebe12
DTITLE=Various Artist - CDX Volume 59 - June 1993
DYEAR=1993
DGENRE=Country
TTITLE0=Dwight Yoakam - A Thousand Miles From Nowhere
TTITLE1=Ricky Lynn Gregg - Can You Feel It
TTITLE2=Bobbie Cryner - Daddy Laid The Blues On Me
TTITLE3=Shelby Lynne - Feelin' Kind of Lonely Tonight
TTITLE4=Zaca Creek - Fly Me South
TTITLE5=Holly Stannard Young - Hey Handsome
TTITLE6=Larry Boone - Hotel Coupe De Ville
TTITLE7=Larry Stewart - I'll Cry Tomorrow
TTITLE8=Billy Ray Cyrus - In The Heart of a Woman
TTITLE9=Brother Phelps - Let Go
TTITLE10=Gene Watson - Old Porch Swing
TTITLE11=Danny Gatton and Delbert McClinton - Sun Medley ( Mystery Train, My Baby Left Me, That's All Right)
TTITLE12=Clay Walker - What's It To You
TTITLE13=Michael Henry - When Time Has Let You Go
TTITLE14=Jack Robertson - Where Do You Think You're Coming From
TTITLE15=Aaron Tippin - Working Man's PhD
TTITLE16=Dean Chance - You Believe In Giving
TTITLE17=Shelby Lynne - Feelin Kind of Lonely Tonight (DT)
EXTD=YEAR: 1993
EXTT0=
EXTT1=
EXTT2=
EXTT3=
EXTT4=
EXTT5=
EXTT6=
EXTT7=
EXTT8=
EXTT9=
EXTT10=
EXTT11=
EXTT12=
EXTT13=
EXTT14=
EXTT15=
EXTT16=
EXTT17=
PLAYORDER=
